<svg width="652" height="652" viewBox="0 0 652 652" fill="none" xmlns="http://www.w3.org/2000/svg">
<path d="M126.1 560.5V541.1H115.3L115.5 545.6H120.5V557.1C120.5 557.1 117.5 557.8 115.3 557.8C112.1 557.8 108.5 556 108.5 544.8C108.5 533.8 113.2 531.8 117.1 531.8C120.9 531.8 124.9 533.5 124.9 533.5V529C124.9 529 121.6 527.2 117.1 527.2C110.9 527.2 102.9 529.7 102.9 545C102.9 560.3 108.9 562.4 114.9 562.4C119.7 562.5 125 560.8 126.1 560.5ZM154.6 561.9V536H149V555.4C149 555.4 145.9 557.6 143.1 557.6C140.9 557.6 139.9 556.7 139.9 553.9V536H134.3V554.8C134.3 560.5 137.4 562.4 141.5 562.4C145.8 562.4 149.2 558.8 149.2 558.8L149.9 561.9C150 561.9 154.6 561.9 154.6 561.9ZM181.4 561.9V543.9C181.4 536.8 177.4 535.5 172.5 535.5C168 535.5 164 536.9 164 536.9V541.5C164.5 541.4 168.6 540.1 171.5 540.1C174.2 540.1 175.8 540.4 175.8 543.5V545.9H171.4C167.3 545.9 161.6 547.1 161.6 554.2C161.6 561.2 165.9 562.5 169.1 562.5C173.6 562.5 175.9 559.3 175.9 559.3L176.5 562H181.4V561.9ZM175.8 556.1C175.8 556.1 173.5 558.1 170.8 558.1C168.8 558.1 167.2 557.4 167.2 553.9C167.2 550.1 169.2 549.2 173.2 549.1H175.8V556.1ZM202.6 541.5V535.9C202.6 535.9 201.4 535.6 200.1 535.6C196.4 535.6 194.9 539.1 194.9 539.1L194.1 536.1H189.7V562H195.3V542.6C195.3 542.6 196.7 541.1 199 541.1C200.7 541 202.6 541.5 202.6 541.5ZM224 561.9V543.9C224 536.8 220 535.5 215.1 535.5C210.6 535.5 206.6 536.9 206.6 536.9V541.5C207.1 541.4 211.2 540.1 214.1 540.1C216.8 540.1 218.4 540.4 218.4 543.5V545.9H214C209.9 545.9 204.2 547.1 204.2 554.2C204.2 561.2 208.5 562.5 211.7 562.5C216.2 562.5 218.5 559.3 218.5 559.3L219.1 562H224V561.9ZM218.5 556.1C218.5 556.1 216.2 558.1 213.5 558.1C211.5 558.1 209.9 557.4 209.9 553.9C209.9 550.1 211.9 549.2 215.9 549.1H218.5V556.1ZM253.8 561.9V543.3C253.8 537.4 250.9 535.6 246.5 535.6C241.9 535.6 238 539.1 238 539.1L237 536.1H232.6V562H238.2V542.6C238.2 542.6 241.4 540.4 244.7 540.4C246.7 540.4 248.3 540.7 248.3 543.4V561.9C248.2 561.9 253.8 561.9 253.8 561.9ZM274.7 561.5V557C274.7 557 271.6 557.9 270.2 557.9C269 557.9 268.1 557.6 268.1 555.7V540H273.4L274 536H268.1V528.2L262.9 530.2L262.6 536H258.2V540H262.6V555.7C262.6 561.3 265.4 562.5 269.1 562.5C272 562.5 274.7 561.5 274.7 561.5ZM298.1 536H292L287.4 555.5L281.6 536H275.2L285 561.5L284.7 562.9C284 565.9 282.9 567.2 281.1 567.2C279.7 567.2 276.5 566.5 276.5 566.5V570.9C276.5 570.9 279.2 571.7 281.5 571.7C284.6 571.7 287.7 570.8 289.3 565.3C289.3 565.3 298.1 536 298.1 536ZM334 527.7H311.8V532.7H320.1V561.9H325.7V532.7H333.4C333.4 532.7 334 527.7 334 527.7ZM348 541.5V535.9C348 535.9 346.8 535.6 345.5 535.6C341.8 535.6 340.3 539.1 340.3 539.1L339.6 536.1H335.2V562H340.8V542.6C340.8 542.6 342.2 541.1 344.5 541.1C346.1 541 348 541.5 348 541.5ZM373 561.9V536H367.4V555.4C367.4 555.4 364.3 557.6 361.5 557.6C359.3 557.6 358.3 556.7 358.3 553.9V536H352.7V554.8C352.7 560.5 355.8 562.4 359.9 562.4C364.2 562.4 367.6 558.8 367.6 558.8L368.3 561.9C368.4 561.9 373 561.9 373 561.9ZM395.9 554.5C395.9 550 393.3 548.1 390.6 547.1L388.1 546.2C386.4 545.6 384.7 545.1 384.7 542.9C384.7 540.8 386.3 540.1 388.9 540.1C391.3 540.1 394.9 541.1 394.9 541.1V536.7C394.9 536.7 392.1 535.6 388.5 535.6C383.5 535.6 379.4 537.7 379.4 543.2C379.4 547.8 382.7 549.4 384.8 550.3L387.1 551.2C389 552 390.5 552.5 390.5 554.7C390.5 557.4 388.4 557.8 386 557.8C384 557.8 379.7 556.5 379.7 556.5V561.2C379.7 561.2 383.2 562.3 386.2 562.3C390.8 562.5 395.9 561.4 395.9 554.5ZM415.1 561.5V557C415.1 557 412 557.9 410.6 557.9C409.3 557.9 408.5 557.6 408.5 555.7V540H413.8L414.4 536H408.6V528.2L403.3 530.2L403 536H398.6V540H403V555.7C403 561.3 405.8 562.5 409.5 562.5C412.4 562.5 415.1 561.5 415.1 561.5ZM455.3 552.2C455.3 546.4 451.7 544.8 448.3 544.2C451.2 543.5 454.3 541.6 454.3 536.7C454.3 529.1 449.5 527.8 441.4 527.8H434.1V562H441.1C450 561.9 455.3 561.1 455.3 552.2ZM448.8 536.8C448.8 541.5 446.6 542.3 441.7 542.3H439.8V532H441.6C446.4 532 448.8 532.6 448.8 536.8ZM449.8 552.1C449.8 557.2 447 557.7 441.8 557.7H439.8V546.5H441.7C446.8 546.4 449.8 547.3 449.8 552.1ZM480 561.9V543.9C480 536.8 476 535.5 471.1 535.5C466.6 535.5 462.6 536.9 462.6 536.9V541.5C463.1 541.4 467.2 540.1 470.2 540.1C472.9 540.1 474.5 540.4 474.5 543.5V545.9H470C465.9 545.9 460.2 547.1 460.2 554.2C460.2 561.2 464.5 562.5 467.7 562.5C472.2 562.5 474.5 559.3 474.5 559.3L475.1 562H480V561.9ZM474.4 556.1C474.4 556.1 472.1 558.1 469.4 558.1C467.4 558.1 465.7 557.4 465.7 553.9C465.7 550.1 467.8 549.2 471.7 549.1H474.3C474.4 549.1 474.4 556.1 474.4 556.1ZM509.7 561.9V543.3C509.7 537.4 506.7 535.6 502.4 535.6C497.8 535.6 493.9 539.1 493.9 539.1L492.9 536.1H488.4V562H494V542.6C494 542.6 497.2 540.4 500.5 540.4C502.5 540.4 504.1 540.7 504.1 543.4V561.9C504.2 561.9 509.7 561.9 509.7 561.9ZM539 561.9L530.3 546.9L538 536H531.4L524.7 547.1L532.7 562.4C532.6 562.5 539 561.9 539 561.9ZM518.2 561.9H523.8V526.7H518.2V561.9Z" fill="#3D4952"/>
<path d="M131.5 450.6H510.4V71.7002H131.5V450.6Z" fill="#DE4A09"/>
<path d="M213.999 346.201C211.899 346.801 201.799 349.601 192.699 349.601C181.099 349.601 169.399 346.101 169.399 318.901C169.399 291.801 184.999 287.301 196.799 287.301C205.499 287.301 211.699 290.401 211.699 290.401V298.601C211.699 298.601 204.099 295.601 196.799 295.601C189.199 295.601 180.099 299.101 180.099 318.501C180.099 338.401 186.999 341.501 193.099 341.501C197.499 341.501 203.199 340.301 203.199 340.301V320.001H193.599L193.099 312.001H213.899C213.999 311.901 213.999 346.201 213.999 346.201ZM220.499 287.301H265.199L263.999 296.901H249.399V349.501H237.699V297.201H220.599V287.301H220.499ZM274.799 287.501L295.499 287.101C321.599 287.101 320.899 315.001 305.699 316.701C322.199 319.301 321.499 343.701 305.699 349.401H274.699C274.799 349.401 274.799 287.501 274.799 287.501ZM286.399 296.901V312.801H297.299C303.699 312.401 306.999 298.601 297.699 296.901H286.399ZM286.399 321.601V339.501H297.299C309.399 339.501 306.999 322.001 297.699 321.601H286.399ZM329.299 304.801C345.099 297.601 363.099 299.201 365.799 311.101V349.601H354.899V343.401C345.299 353.801 322.499 351.801 325.499 330.501C327.299 320.701 338.099 317.801 353.899 318.901C355.499 305.201 337.599 311.601 329.299 314.001C329.299 314.101 329.299 304.801 329.299 304.801ZM338.499 328.701C331.599 340.401 345.499 344.501 354.099 335.301V327.201C348.899 325.701 340.899 325.601 338.499 328.701ZM388.399 315.801L388.199 349.601H376.099V301.001H387.599V306.501C404.399 296.701 418.199 299.201 420.899 313.801V349.501H408.799V315.801C406.399 306.901 391.299 312.701 388.399 315.801ZM429.899 349.601V287.301H441.899V349.601H429.899ZM458.599 301.001H472.899L456.099 322.701L474.099 349.501H460.799L443.099 322.001L458.599 301.001ZM347.899 220.801H442.599V126.101H347.899V220.801Z" fill="#FEFEFE"/>
</svg>
